<?xml version="1.0" encoding="utf-8"?>
<!-- Generator: Adobe Illustrator 23.0.3, SVG Export Plug-In . SVG Version: 6.00 Build 0)  -->
<svg version="1.1" id="Layer_1" xmlns="http://www.w3.org/2000/svg" xmlns:xlink="http://www.w3.org/1999/xlink" x="0px" y="0px"
	 viewBox="0 0 80 80" style="enable-background:new 0 0 80 80;" xml:space="preserve">
<style type="text/css">
	.st0{fill:url(#SVGID_1_);}
	.st1{fill:url(#SVGID_2_);}
	.st2{fill:url(#SVGID_3_);}
	.st3{fill:url(#SVGID_4_);}
	.st4{fill:url(#SVGID_5_);}
	.st5{fill:url(#SVGID_6_);}
	.st6{fill:url(#SVGID_7_);}
	.st7{fill:url(#SVGID_8_);}
	.st8{fill:url(#SVGID_9_);}
	.st9{fill:url(#SVGID_10_);}
	.st10{fill:url(#SVGID_11_);}
	.st11{fill:url(#SVGID_12_);}
	.st12{fill:url(#SVGID_13_);}
	.st13{fill:url(#SVGID_14_);}
	.st14{fill:url(#SVGID_15_);}
	.st15{fill:url(#SVGID_16_);}
	.st16{fill:url(#SVGID_17_);}
	.st17{fill:url(#SVGID_18_);}
	.st18{fill:url(#SVGID_19_);}
	.st19{fill:url(#SVGID_20_);}
	.st20{fill:url(#SVGID_21_);}
	.st21{fill:url(#SVGID_22_);}
	.st22{fill:url(#SVGID_23_);}
	.st23{fill:url(#SVGID_24_);}
	.st24{fill:url(#SVGID_25_);}
	.st25{fill:url(#SVGID_26_);}
	.st26{fill:url(#SVGID_27_);}
	.st27{fill:url(#SVGID_28_);}
	.st28{fill:url(#SVGID_29_);}
	.st29{fill:url(#SVGID_30_);}
	.st30{fill:url(#SVGID_31_);}
	.st31{fill:url(#SVGID_32_);}
	.st32{fill:url(#SVGID_33_);}
	.st33{fill:url(#SVGID_34_);}
	.st34{fill:url(#SVGID_35_);}
	.st35{fill:url(#SVGID_36_);}
	.st36{fill:url(#SVGID_37_);}
	.st37{fill:url(#SVGID_38_);}
</style>
<linearGradient id="SVGID_1_" gradientUnits="userSpaceOnUse" x1="13.3642" y1="28.9889" x2="76.5776" y2="65.4852">
	<stop  offset="0" style="stop-color:#2183BF"/>
	<stop  offset="1" style="stop-color:#19086D"/>
</linearGradient>
<path class="st0" d="M23.6,66.2c4.4,1.2,10.2,1.9,16.4,1.9s12-0.7,16.4-1.9c5.4-1.5,8.1-3.7,8.1-6.5c0-2.8-2.7-5-8.1-6.5
	c-2.5-0.7-5.4-1.2-8.5-1.5C54,41,60.2,29.1,60.2,23.2C60.2,12,51.1,3,40,3s-20.2,9-20.2,20.2c0,5.9,6.1,17.9,12.3,28.4
	c-3.2,0.3-6.1,0.8-8.5,1.5c-5.4,1.5-8.1,3.7-8.1,6.5C15.5,62.5,18.2,64.7,23.6,66.2z M40,7.3c8.7,0,15.8,7.1,15.8,15.8
	c0,4.5-5.5,16.2-14.8,31.4c-0.3,0.5-0.8,0.6-1,0.6c-0.2,0-0.7-0.1-1-0.6c-9.3-15.2-14.8-26.9-14.8-31.4C24.2,14.4,31.3,7.3,40,7.3z
	 M25.6,57.1c2.6-0.7,5.7-1.1,9-1.4c0.2,0.4,0.5,0.8,0.7,1.1c1,1.6,2.8,2.6,4.7,2.6c1.9,0,3.7-1,4.7-2.6c0.2-0.4,0.5-0.8,0.7-1.1
	c3.3,0.2,6.4,0.7,9,1.4c4,1,5.4,2.1,5.7,2.6c-0.3,0.4-1.7,1.6-5.7,2.6c-3.9,1-9,1.6-14.4,1.6s-10.5-0.6-14.4-1.6
	c-4-1-5.4-2.1-5.7-2.6C20.2,59.2,21.6,58.1,25.6,57.1z M77,63c0,2.9-2,7.1-11.7,10.4C58.5,75.7,49.5,77,40,77s-18.5-1.3-25.3-3.6
	C5,70.1,3,65.9,3,63c0-3.8,3.4-6.5,6.3-8.1c1-0.6,2.4-0.2,2.9,0.9c0.6,1,0.2,2.4-0.9,2.9c-2.6,1.4-4.1,3-4.1,4.3
	c0,1.6,2.3,4.1,8.7,6.3c6.4,2.2,14.9,3.4,23.9,3.4s17.6-1.2,23.9-3.4c6.4-2.2,8.7-4.7,8.7-6.3c0-1.3-1.5-2.9-4.1-4.3
	c-1-0.6-1.4-1.9-0.9-2.9c0.6-1,1.9-1.4,2.9-0.9C73.6,56.5,77,59.2,77,63z M48.1,21.8c0-4.5-3.6-8.1-8.1-8.1s-8.1,3.6-8.1,8.1
	c0,4.5,3.6,8.1,8.1,8.1S48.1,26.2,48.1,21.8z M36.2,21.8c0-2.1,1.7-3.8,3.8-3.8s3.8,1.7,3.8,3.8s-1.7,3.8-3.8,3.8
	S36.2,23.8,36.2,21.8z"/>
</svg>
